<svg xmlns="http://www.w3.org/2000/svg" viewBox="0 0 390 844" fill="none">
  <rect width="390" height="844" fill="#050505"/>
  <rect x="24" y="56" width="88" height="28" rx="8" fill="#0D2DCD" fill-opacity="0.22"/>
  <text x="38" y="75" fill="#0D2DCD" font-family="system-ui,sans-serif" font-size="11" font-weight="600" letter-spacing="0.08em">AlphaBlock</text>
  <rect x="24" y="98" width="240" height="28" rx="8" fill="#ffffff" fill-opacity="0.92"/>
  <rect x="24" y="136" width="168" height="12" rx="6" fill="#ffffff" fill-opacity="0.32"/>
  <rect x="24" y="176" width="342" height="148" rx="18" fill="#0D2DCD" fill-opacity="0.14" stroke="#0D2DCD" stroke-opacity="0.32"/>
  <rect x="40" y="198" width="108" height="10" rx="5" fill="#0D2DCD" fill-opacity="0.7"/>
  <rect x="40" y="220" width="196" height="22" rx="8" fill="#ffffff" fill-opacity="0.9"/>
  <rect x="40" y="252" width="132" height="10" rx="5" fill="#ffffff" fill-opacity="0.34"/>
  <rect x="40" y="280" width="104" height="28" rx="14" fill="#0D2DCD"/>
  <rect x="24" y="344" width="165" height="118" rx="16" fill="#111116" stroke="#ffffff" stroke-opacity="0.06"/>
  <rect x="201" y="344" width="165" height="118" rx="16" fill="#111116" stroke="#ffffff" stroke-opacity="0.06"/>
  <rect x="40" y="364" width="64" height="10" rx="5" fill="#ffffff" fill-opacity="0.24"/>
  <rect x="40" y="386" width="108" height="24" rx="8" fill="#ffffff" fill-opacity="0.9"/>
  <rect x="217" y="364" width="64" height="10" rx="5" fill="#ffffff" fill-opacity="0.24"/>
  <rect x="217" y="386" width="92" height="24" rx="8" fill="#ffffff" fill-opacity="0.9"/>
  <rect x="24" y="480" width="342" height="60" rx="16" fill="#111116" stroke="#ffffff" stroke-opacity="0.06"/>
  <rect x="40" y="498" width="204" height="12" rx="6" fill="#ffffff" fill-opacity="0.52"/>
  <rect x="40" y="518" width="148" height="10" rx="5" fill="#ffffff" fill-opacity="0.24"/>
  <circle cx="330" cy="510" r="14" fill="#0D2DCD" fill-opacity="0.85"/>
  <rect x="24" y="556" width="342" height="60" rx="16" fill="#111116" stroke="#ffffff" stroke-opacity="0.06"/>
  <rect x="40" y="574" width="176" height="12" rx="6" fill="#ffffff" fill-opacity="0.52"/>
  <rect x="40" y="594" width="120" height="10" rx="5" fill="#ffffff" fill-opacity="0.24"/>
  <rect x="24" y="636" width="342" height="132" rx="18" fill="#0a0a0d" stroke="#ffffff" stroke-opacity="0.05"/>
  <polyline points="48,740 96,684 144,704 192,636 240,662 288,608 336,632" stroke="#0D2DCD" stroke-width="3" fill="none" stroke-linecap="round" stroke-linejoin="round"/>
  <text x="40" y="668" fill="#ffffff" fill-opacity="0.45" font-family="system-ui,sans-serif" font-size="10" font-weight="500">Portfolio performance</text>
</svg>
